<?xml version="1.0" standalone="no"?>
<!DOCTYPE svg PUBLIC "-//W3C//DTD SVG 20010904//EN"
 "http://www.w3.org/TR/2001/REC-SVG-20010904/DTD/svg10.dtd">
<svg version="1.0" xmlns="http://www.w3.org/2000/svg"
 width="165.000000pt" height="165.000000pt" viewBox="0 0 165.000000 165.000000"
 preserveAspectRatio="xMidYMid meet">
<metadata>
Created by potrace 1.14, written by Peter Selinger 2001-2017
</metadata>
<g transform="translate(0.000000,165.000000) scale(0.100000,-0.100000)"
fill="#000000" stroke="none">
<path d="M0 825 l0 -825 825 0 825 0 0 825 0 825 -825 0 -825 0 0 -825z m108
103 l-3 -253 -22 -3 -23 -3 0 255 0 256 25 0 25 0 -2 -252z m170 0 l-3 -253
-60 0 -60 0 -3 240 c-1 132 0 245 2 252 4 9 26 13 66 13 l60 0 -2 -252z m267
-3 l0 -250 -110 0 -110 0 -3 253 -2 253 112 -3 113 -3 0 -250z m93 3 l-3 -253
-25 0 -25 0 -3 240 c-1 132 0 245 2 252 3 7 17 13 31 13 l25 0 -2 -252z m170
0 l-3 -253 -60 0 -60 0 -3 253 -2 252 65 0 65 0 -2 -252z m120 0 l-3 -253 -35
0 -35 0 -3 253 -2 252 40 0 40 0 -2 -252z m310 0 l-3 -253 -130 0 -130 0 -3
253 -2 252 135 0 135 0 -2 -252z m100 0 l-3 -253 -25 0 -25 0 -3 253 -2 252
30 0 30 0 -2 -252z m260 0 l-3 -253 -107 -3 -108 -3 0 256 0 255 110 0 110 0
-2 -252z m-1320 -315 c3 -21 0 -23 -47 -23 -38 0 -51 -4 -51 -14 0 -10 13 -16
38 -18 30 -2 38 -7 40 -25 3 -21 -1 -23 -37 -23 -34 0 -41 -3 -41 -19 0 -17 8
-20 48 -23 40 -3 47 -6 50 -25 3 -22 0 -23 -72 -23 l-76 0 0 103 c0 57 3 107
7 111 4 4 37 6 73 4 59 -3 65 -5 68 -25z m167 -3 c19 -38 26 -38 49 1 11 18
24 29 34 27 14 -3 17 -20 20 -111 l3 -107 -26 0 c-22 0 -25 4 -25 36 0 29 -3
35 -16 30 -9 -4 -23 -1 -30 5 -12 9 -14 4 -14 -30 0 -37 -2 -41 -25 -41 l-25
0 0 103 c0 57 3 107 7 110 14 15 33 6 48 -23z m363 3 c3 -21 0 -23 -47 -23
-38 0 -51 -4 -51 -14 0 -10 13 -16 38 -18 30 -2 38 -7 40 -25 3 -21 -1 -23
-37 -23 -34 0 -41 -3 -41 -20 0 -17 7 -20 45 -20 41 0 45 -2 45 -25 0 -24 -2
-25 -70 -25 l-70 0 0 103 c0 57 3 107 7 111 4 4 37 6 73 4 59 -3 65 -5 68 -25z
m242 2 c23 -21 26 -63 6 -90 -12 -17 -12 -24 5 -57 24 -48 24 -48 -9 -48 -23
0 -32 8 -49 43 l-22 42 0 -42 c-1 -41 -2 -43 -31 -43 l-30 0 0 103 c0 57 3
107 8 111 13 14 101 0 122 -19z m274 -5 c16 -16 17 -22 6 -34 -16 -20 -30 -20
-44 0 -7 9 -18 12 -29 8 -15 -5 -17 -16 -15 -58 3 -44 6 -51 26 -54 12 -2 22
1 22 7 0 6 -7 11 -15 11 -9 0 -15 9 -15 25 0 23 4 25 40 25 l40 0 0 -50 c0
-56 -15 -70 -73 -70 -64 0 -103 77 -77 154 20 63 88 81 134 36z m183 -5 l17
-36 18 36 c14 26 25 35 43 35 32 0 31 -5 -5 -82 -17 -35 -30 -80 -30 -100 0
-34 -3 -38 -25 -38 -23 0 -25 4 -25 40 0 25 -11 63 -30 100 -36 72 -37 80 -5
80 19 0 29 -9 42 -35z"/>
<path d="M980 564 c0 -9 7 -14 17 -12 25 5 28 28 4 28 -12 0 -21 -6 -21 -16z"/>
</g>
</svg>
